<svg version="1.0" xmlns="http://www.w3.org/2000/svg"
 width="32" height="32" viewBox="882 789 2331 2515"
 preserveAspectRatio="xMidYMid meet">
<metadata>
Created by potrace 1.16, written by Peter Selinger 2001-2019
</metadata>
<g transform="translate(0.000000,4096.000000) scale(0.100000,-0.100000)"
fill="#000000" stroke="none">
<path d="M18097 33006 l-48 -14 -41 -28 c-40 -28 -96 -90 -116 -130 -16 -30
-40 -173 -52 -309 -6 -66 -17 -157 -25 -204 -8 -46 -15 -98 -15 -115 0 -32
-27 -224 -60 -426 -31 -190 -51 -321 -60 -395 -5 -38 -16 -101 -24 -140 -9
-38 -16 -83 -16 -98 0 -16 -9 -70 -20 -120 -10 -51 -29 -141 -40 -202 -12 -60
-28 -141 -35 -180 -8 -38 -17 -90 -21 -115 -3 -25 -14 -76 -24 -115 -9 -38
-27 -115 -39 -170 -48 -226 -107 -482 -126 -550 -28 -101 -113 -439 -130 -518
-8 -32 -16 -66 -20 -75 -4 -9 -18 -55 -31 -102 -129 -453 -376 -1162 -543
-1565 -23 -55 -56 -136 -73 -180 -49 -123 -313 -645 -446 -882 l-119 -211
-109 -149 c-121 -165 -147 -210 -165 -286 l-11 -53 16 -62 15 -62 27 -42 c14
-24 45 -63 68 -87 l41 -43 60 -29 60 -29 91 0 91 0 49 26 c126 66 268 259 552
750 56 97 227 415 251 467 10 23 51 112 91 197 40 85 83 180 95 210 13 30 40
96 60 145 144 346 193 472 280 710 111 305 223 656 312 975 9 30 21 75 28 100
94 327 176 637 215 805 16 72 40 172 52 223 l22 93 11 9 11 9 2055 3 2056 2
27 -17 c15 -10 36 -32 46 -50 l20 -32 0 -37 0 -38 -31 -112 c-17 -62 -35 -132
-40 -156 -5 -24 -12 -48 -15 -54 -3 -5 -15 -44 -26 -86 -30 -111 -52 -193 -88
-317 -47 -166 -66 -232 -89 -320 -38 -141 -60 -212 -195 -625 -73 -223 -146
-445 -161 -495 -16 -49 -80 -229 -143 -400 -62 -170 -131 -357 -152 -415 -41
-115 -172 -440 -214 -535 -15 -33 -39 -89 -53 -125 -49 -125 -257 -595 -319
-720 -25 -52 -104 -212 -174 -355 -70 -143 -153 -312 -183 -375 -88 -182 -356
-674 -502 -920 -313 -527 -491 -803 -875 -1354 -250 -359 -650 -867 -930
-1181 -69 -78 -190 -215 -269 -305 l-145 -165 -315 -316 c-293 -292 -470 -458
-696 -653 -49 -43 -133 -115 -185 -160 -321 -278 -923 -712 -1300 -938 -674
-403 -1370 -726 -2085 -966 -199 -66 -219 -72 -545 -164 -41 -11 -95 -26 -120
-34 -25 -7 -130 -33 -235 -59 -104 -25 -217 -53 -250 -62 -33 -9 -80 -19 -105
-23 -25 -4 -81 -14 -125 -23 -74 -14 -144 -27 -445 -77 -177 -30 -314 -49
-437 -60 -61 -6 -133 -14 -160 -19 -26 -5 -86 -12 -133 -16 -47 -4 -174 -15
-283 -26 l-198 -20 -19 6 -20 6 0 14 0 15 23 13 c12 8 141 75 287 149 146 75
313 161 373 193 101 53 367 181 627 300 124 57 150 68 370 170 80 37 208 95
285 130 133 59 199 90 445 207 58 28 152 72 210 98 58 26 148 68 200 93 52 25
208 95 345 155 202 89 431 193 600 272 62 29 215 98 495 222 173 77 393 178
489 225 l173 84 57 57 57 57 19 40 20 40 0 100 -1 100 -27 53 -28 54 -45 44
-45 45 -62 30 -62 29 -72 0 -72 0 -47 -16 c-26 -9 -124 -52 -218 -96 -94 -44
-328 -151 -521 -238 -192 -87 -444 -201 -560 -255 -644 -299 -947 -426 -960
-405 l-6 10 0 2967 0 2967 16 15 16 16 1162 0 1162 0 45 24 c70 37 108 70 151
130 l40 55 21 69 20 68 -6 51 c-4 27 -16 73 -26 101 l-20 52 -45 52 -46 52
-62 31 -62 30 -1166 0 -1166 1 -17 12 -16 12 0 1946 0 1946 6 16 6 16 26 4
c15 3 576 6 1247 6 l1219 1 53 24 52 24 44 44 44 44 28 58 28 58 5 72 4 73
-15 54 -16 54 -30 47 -30 47 -54 36 -55 36 -63 17 -64 17 -2835 -3 -2835 -3
-40 -10 c-22 -6 -58 -21 -81 -34 l-41 -24 -37 -42 -38 -42 -27 -56 -26 -56 0
-95 0 -95 22 -47 22 -47 48 -52 48 -51 50 -26 50 -27 1248 0 1249 0 14 -19 14
-20 0 -1941 0 -1942 -18 -16 -19 -17 -1238 0 -1239 0 -45 -22 -46 -22 -48 -48
-48 -48 -29 -62 -30 -63 0 -90 0 -91 33 -69 34 -70 35 -31 c20 -17 61 -44 92
-59 l56 -27 72 -9 73 -8 1168 0 1169 0 14 -12 14 -11 0 -3152 0 -3153 -23 -21
-22 -21 -197 -96 c-109 -52 -200 -95 -203 -95 -3 0 -150 -71 -328 -159 -177
-87 -365 -179 -417 -203 -341 -161 -1193 -636 -1387 -774 -122 -87 -200 -185
-245 -310 l-21 -59 -1 -115 -1 -115 36 -75 36 -75 42 -47 c23 -26 64 -63 91
-83 l50 -36 54 -19 54 -19 72 -9 73 -9 311 8 c411 11 702 25 889 44 83 8 202
19 262 25 61 5 144 14 185 19 41 6 152 20 245 31 206 25 407 55 535 80 52 10
113 21 135 25 22 3 69 12 105 20 36 8 110 23 165 35 55 11 147 32 205 46 100
24 129 32 280 75 36 10 101 27 145 39 151 40 588 183 992 324 768 267 1959
916 2612 1421 57 44 150 114 206 155 57 41 160 122 231 180 70 58 168 138 218
178 102 82 253 217 524 467 101 94 195 179 209 190 76 60 689 717 866 929 38
44 115 135 172 201 57 66 139 165 182 219 43 55 141 178 219 275 163 204 396
516 509 681 43 63 108 158 145 210 36 52 108 160 160 240 319 495 449 707 723
1185 76 133 378 710 473 905 53 107 120 245 149 305 86 177 218 468 285 630
95 229 125 302 165 395 33 77 114 272 217 520 49 119 172 453 218 590 4 14 39
115 78 225 100 290 197 579 221 665 12 41 55 179 96 305 68 214 95 302 147
495 11 41 26 95 33 120 8 25 21 77 29 115 9 39 23 95 31 125 9 30 30 107 46
170 17 63 46 176 66 250 19 74 44 167 54 205 11 39 26 104 34 145 7 41 21 104
29 140 l16 65 0 98 0 98 -31 75 -32 76 -55 59 -55 60 -86 42 -86 42 -2257 3
-2257 2 -11 20 -11 20 20 103 c57 289 120 719 142 956 4 52 13 117 19 145 5
28 14 106 20 172 5 67 17 166 25 219 l16 97 2 136 2 137 -28 57 -28 57 -46 41
-46 40 -55 27 -55 27 -81 3 -81 2 -48 -13z"/>
<path d="M23425 24004 c-199 -17 -474 -64 -617 -105 -36 -10 -72 -19 -80 -19
-65 0 -451 -146 -658 -250 -325 -163 -545 -326 -831 -617 l-165 -168 -66 -85
c-362 -469 -576 -1008 -660 -1665 l-22 -170 -3 -2995 -3 -2995 -6 -24 -5 -25
-297 -298 c-163 -165 -714 -717 -1224 -1228 l-927 -929 -25 -38 c-14 -21 -35
-65 -46 -97 l-20 -59 0 -37 0 -37 19 -56 20 -57 30 -43 c16 -24 48 -60 71 -81
l42 -38 52 -24 51 -24 77 0 76 0 62 33 63 32 339 330 c186 182 626 619 977
973 637 641 654 656 665 626 l6 -16 0 -2306 0 -2306 -21 -75 -21 -76 -36 -70
-35 -70 -62 -61 -63 -60 -63 -34 -63 -33 -65 -15 -66 -15 -1040 -3 -1040 -3
-44 -11 -44 -11 -42 -29 c-24 -16 -61 -50 -82 -75 l-40 -45 -19 -57 -18 -58 0
-65 1 -65 22 -57 22 -57 44 -49 c24 -26 61 -60 82 -75 l39 -27 49 -15 50 -15
1037 0 1037 0 103 11 103 10 109 35 109 35 89 46 90 46 86 67 c163 126 281
261 360 410 l50 95 30 90 c17 50 41 133 54 185 l23 95 2 2750 3 2750 6 24 5
25 873 875 c918 922 923 927 955 1010 l21 52 0 58 0 59 -22 59 -22 58 -61 61
-60 60 -68 27 -67 27 -55 0 -54 0 -56 -21 -55 -20 -48 -39 c-27 -21 -313 -300
-636 -621 -323 -321 -599 -591 -612 -599 l-24 -14 -10 10 -11 11 1 2529 0
2529 20 215 20 215 20 100 c35 167 61 265 101 380 l39 110 70 140 c81 165 132
248 254 410 l90 120 115 115 116 116 100 74 c170 126 425 273 566 325 292 109
565 175 834 202 l140 14 255 6 255 5 180 -16 c295 -28 445 -53 795 -136 320
-76 874 -302 1031 -421 61 -45 88 -81 117 -152 l26 -62 -1 -75 -1 -75 -21 -53
c-12 -29 -36 -77 -55 -105 l-33 -52 -189 -199 c-830 -874 -2840 -2879 -3463
-3456 -80 -74 -205 -193 -277 -265 l-132 -130 -28 -55 -29 -55 0 -110 0 -110
32 -55 32 -55 38 -36 c53 -50 98 -75 168 -93 l60 -15 63 14 c34 8 84 26 111
39 l48 25 109 98 c60 54 233 220 384 368 152 149 440 429 640 624 890 865
2225 2212 2810 2836 47 50 142 151 211 225 l127 135 57 35 58 34 66 0 66 -1
40 -21 c22 -11 58 -34 81 -50 l41 -30 139 -154 c76 -85 196 -219 265 -299 185
-211 404 -455 554 -614 73 -77 210 -224 306 -326 464 -495 696 -736 1204
-1244 580 -581 1022 -1012 1370 -1335 115 -107 262 -245 325 -306 l115 -110
66 -37 66 -37 61 -6 61 -7 45 12 45 11 61 36 c34 20 77 49 95 66 l35 30 32 66
33 67 0 80 -1 80 -26 50 c-39 74 -80 117 -292 309 -105 95 -314 292 -465 437
-150 145 -341 327 -425 405 -200 186 -1274 1278 -1647 1674 -328 350 -645 691
-729 785 -221 249 -390 436 -480 530 -58 61 -154 164 -214 230 -524 576 -1297
1127 -1921 1370 -191 75 -396 144 -555 189 -52 15 -124 35 -160 45 -36 11
-110 29 -165 40 -55 12 -129 28 -165 36 -36 9 -101 19 -145 25 -44 5 -109 13
-145 19 -36 6 -164 17 -285 26 l-220 15 -235 -1 -235 -2 -150 -13z"/>
<path d="M24170 17751 c-14 -5 -48 -20 -76 -34 l-50 -25 -38 -42 -38 -42 -24
-52 -24 -51 0 -87 0 -86 22 -57 22 -57 49 -54 49 -54 63 -30 63 -30 2953 0
2952 0 55 17 54 17 44 39 c25 22 57 58 73 81 l29 41 21 71 21 71 0 35 0 34
-17 50 c-19 58 -57 115 -110 166 l-38 37 -50 23 -50 23 -2965 2 -2965 1 -25
-7z"/>
<path d="M24190 15273 c-56 -6 -159 -43 -220 -79 l-57 -33 -64 -68 -65 -69
-30 -54 c-17 -30 -41 -81 -52 -112 l-22 -58 -10 -107 -10 -108 0 -2990 0
-2990 15 -90 14 -90 46 -92 45 -92 52 -56 51 -57 56 -37 c82 -56 130 -78 207
-96 l69 -17 3129 2 3128 1 84 14 85 14 85 41 84 41 70 65 69 66 35 53 36 53
29 79 28 78 7 55 6 55 1 3030 1 3030 -10 75 c-38 260 -203 448 -465 526 l-81
24 -3155 -2 c-1736 0 -3172 -3 -3191 -5z m6073 -714 l37 -10 28 -41 27 -42 0
-2831 0 -2831 -27 -41 -26 -40 -35 -16 -35 -17 -2870 2 -2871 3 -27 21 c-15
11 -37 32 -47 46 l-20 26 0 1984 c0 1090 1 2371 2 2845 l1 861 27 33 27 32 31
13 30 13 2855 1 2855 0 38 -11z"/>
</g>
</svg>
